<?xml version="1.0" encoding="UTF-8"?>
<svg xmlns="http://www.w3.org/2000/svg" viewBox="0 0 12100.28 8396.12" xmlns:xlink="http://www.w3.org/1999/xlink">
 <g>
  <polygon fill="#8BFFFF" points="10477.51,8396.12 4810.4,2729.02 -0,7539.41 -0,8396.12 "/>
  <polygon fill="#CCCCFF" points="12100.28,0 7539.41,0 4810.4,2729.02 10477.51,8396.12 12100.28,8396.12 "/>
  <polygon fill="#FFB78B" points="7539.41,0 4810.4,2729.02 2081.39,0 "/>
  <polygon fill="#FF7F7F" points="-0,7539.41 4810.4,2729.02 2081.39,0 -0,0 "/>
  <path fill="none" stroke="black" stroke-width="75" stroke-miterlimit="22.9256" d="M3605.64 3939.49l-2414.34 0 0 -1210.48 0 -1203.86 2414.34 0m-2414.34 1203.86l2414.34 0"/>
  <path fill="none" stroke="black" stroke-width="75" stroke-miterlimit="22.9256" d="M4831.71 3957.51c656.75,0 1189.15,532.4 1189.15,1189.15 0,656.75 -532.4,1189.15 -1189.15,1189.15 -656.75,0 -1189.16,-532.4 -1189.16,-1189.15 0,-656.75 532.41,-1189.15 1189.16,-1189.15z"/>
  <path fill="none" stroke="black" stroke-width="75" stroke-miterlimit="22.9256" d="M7209.84 3957.51c656.75,0 1189.16,532.4 1189.16,1189.15 0,656.75 -532.41,1189.15 -1189.16,1189.15 -656.75,0 -1189.15,-532.4 -1189.15,-1189.15 0,-656.75 532.4,-1189.15 1189.15,-1189.15z"/>
  <path fill="none" stroke="black" stroke-width="75" stroke-miterlimit="22.9256" d="M6014.43 2729.01l2414.34 3.31m0 -1207.17l0 2414.34m-2414.34 0l0 -2414.34"/>
  <polyline fill="none" stroke="black" stroke-width="75" stroke-miterlimit="22.9256" points="8434.81,3933.45 9635.94,1531.19 10837.07,3933.45 "/>
  <polyline fill="none" stroke="black" stroke-width="75" stroke-linejoin="bevel" stroke-miterlimit="38.2016" points="8428.77,6353.83 8434.79,3942.49 9635.94,6335.75 10837.09,3942.49 10843.11,6353.83 "/>
  <line fill="none" stroke="black" stroke-width="75" stroke-miterlimit="22.9256" x1="9035.52" y1="2732.03" x2="10236.5" y2= "2732.03" />
  <polyline fill="none" stroke="black" stroke-width="75" stroke-miterlimit="22.9256" points="1191.3,3936.12 3605.64,3936.12 1191.3,6350.46 3605.64,6350.46 "/>
  <circle fill="black" stroke="#6666FF" stroke-width="200" stroke-miterlimit="22.9256" cx="4304.12" cy="5518.15" r="198.44"/>
  <circle fill="black" stroke="#6666FF" stroke-width="200" stroke-miterlimit="22.9256" cx="6658.92" cy="5518.15" r="198.44"/>
 </g>
</svg>
